{
  "accessors": [
    {
      "bufferView": 2,
      "componentType": 5126,
      "count": 5883,
      "max": [
        1.1977499723434448,
        2.4286398887634277,
        1.2097699642181396
      ],
      "min": [
        -1.1977499723434448,
        -0.24104799330234528,
        -1.2097699642181396
      ],
      "type": "VEC3"
    },
    {
      "bufferView": 2,
      "byteOffset": 70596,
      "componentType": 5126,
      "count": 5883,
      "max": [
        1.0,
        1.0,
        1.0
      ],
      "min": [
        -1.0,
        -1.0,
        -1.0
      ],
      "type": "VEC3"
    },
    {
      "bufferView": 1,
      "componentType": 5126,
      "count": 5883,
      "max": [
        0.9922369718551636,
        0.9922770261764526
      ],
      "min": [
        0.007763340137898922,
        0.012935600243508816
      ],
      "type": "VEC2"
    },
    {
      "bufferView": 0,
      "componentType": 5125,
      "count": 10848,
      "type": "SCALAR"
    },
    {
      "bufferView": 2,
      "byteOffset": 141192,
      "componentType": 5126,
      "count": 6037,
      "max": [
        0.8004000186920166,
        2.4069600105285645,
        0.805279016494751
      ],
      "min": [
        -0.8004000186920166,
        -0.2411690056324005,
        -0.805279016494751
      ],
      "type": "VEC3"
    },
    {
      "bufferView": 2,
      "byteOffset": 213636,
      "componentType": 5126,
      "count": 6037,
      "max": [
        1.0,
        1.0,
        1.0
      ],
      "min": [
        -1.0,
        -1.0,
        -1.0
      ],
      "type": "VEC3"
    },
    {
      "bufferView": 1,
      "byteOffset": 47064,
      "componentType": 5126,
      "count": 6037,
      "max": [
        0.9921709895133972,
        0.9921849966049194
      ],
      "min": [
        0.007828859612345695,
        0.007814880460500717
      ],
      "type": "VEC2"
    },
    {
      "bufferView": 0,
      "byteOffset": 43392,
      "componentType": 5125,
      "count": 12036,
      "type": "SCALAR"
    },
    {
      "bufferView": 2,
      "byteOffset": 286080,
      "componentType": 5126,
      "count": 6616,
      "max": [
        0.9270889759063721,
        2.338870048522949,
        1.2314800024032593
      ],
      "min": [
        -0.9270889759063721,
        -0.007639039773494005,
        -0.8839439749717712
      ],
      "type": "VEC3"
    },
    {
      "bufferView": 2,
      "byteOffset": 365472,
      "componentType": 5126,
      "count": 6616,
      "max": [
        1.0,
        1.0,
        1.0
      ],
      "min": [
        -1.0,
        -1.0,
        -1.0
      ],
      "type": "VEC3"
    },
    {
      "bufferView": 1,
      "byteOffset": 95360,
      "componentType": 5126,
      "count": 6616,
      "max": [
        0.993228018283844,
        0.9932399988174438
      ],
      "min": [
        0.006771510001271963,
        0.006760360207408667
      ],
      "type": "VEC2"
    },
    {
      "bufferView": 0,
      "byteOffset": 91536,
      "componentType": 5125,
      "count": 13266,
      "type": "SCALAR"
    },
    {
      "bufferView": 2,
      "byteOffset": 444864,
      "componentType": 5126,
      "count": 1638,
      "max": [
        0.7800269722938538,
        2.1573400497436523,
        0.7487949728965759
      ],
      "min": [
        -0.7800269722938538,
        -0.014132300391793251,
        -0.7800269722938538
      ],
      "type": "VEC3"
    },
    {
      "bufferView": 2,
      "byteOffset": 464520,
      "componentType": 5126,
      "count": 1638,
      "max": [
        0.9999920725822449,
        1.0,
        1.0
      ],
      "min": [
        -0.9999920725822449,
        -0.9999852776527405,
        -1.0
      ],
      "type": "VEC3"
    },
    {
      "bufferView": 1,
      "byteOffset": 148288,
      "componentType": 5126,
      "count": 1638,
      "max": [
        0.992480993270874,
        0.992467999458313
      ],
      "min": [
        0.007518869824707508,
        0.007532480172812939
      ],
      "type": "VEC2"
    },
    {
      "bufferView": 0,
      "byteOffset": 144600,
      "componentType": 5125,
      "count": 3267,
      "type": "SCALAR"
    },
    {
      "bufferView": 2,
      "byteOffset": 484176,
      "componentType": 5126,
      "count": 2233,
      "max": [
        0.5579530000686646,
        2.2653799057006836,
        0.55246901512146
      ],
      "min": [
        -0.5579530000686646,
        -0.3220910131931305,
        -0.55246901512146
      ],
      "type": "VEC3"
    },
    {
      "bufferView": 2,
      "byteOffset": 510972,
      "componentType": 5126,
      "count": 2233,
      "max": [
        1.0,
        1.0,
        1.0
      ],
      "min": [
        -1.0,
        -1.0,
        -1.0
      ],
      "type": "VEC3"
    },
    {
      "bufferView": 1,
      "byteOffset": 161392,
      "componentType": 5126,
      "count": 2233,
      "max": [
        0.9914990067481995,
        0.9922940135002136
      ],
      "min": [
        0.008501400239765644,
        0.007706049829721451
      ],
      "type": "VEC2"
    },
    {
      "bufferView": 0,
      "byteOffset": 157668,
      "componentType": 5125,
      "count": 3864,
      "type": "SCALAR"
    }
  ],
  "asset": {
    "extras": {
      "author": "Götz von Berlichingen (https://sketchfab.com/vonBerlichingen)",
      "license": "CC-BY-4.0 (http://creativecommons.org/licenses/by/4.0/)",
      "source": "https://sketchfab.com/3d-models/flak-pack-low-poly-1056ea79c3154aadb775e958924fd4c3",
      "title": "FLAK pack (low poly)"
    },
    "generator": "Sketchfab-16.68.0",
    "version": "2.0"
  },
  "bufferViews": [
    {
      "buffer": 0,
      "byteLength": 173124,
      "name": "floatBufferViews",
      "target": 34963
    },
    {
      "buffer": 0,
      "byteLength": 179256,
      "byteOffset": 173124,
      "byteStride": 8,
      "name": "floatBufferViews",
      "target": 34962
    },
    {
      "buffer": 0,
      "byteLength": 537768,
      "byteOffset": 352380,
      "byteStride": 12,
      "name": "floatBufferViews",
      "target": 34962
    }
  ],
  "buffers": [
    {
      "byteLength": 890148,
      "uri": "scene.bin"
    }
  ],
  "images": [
    {
      "uri": "textures/FLAK3_baseColor.png"
    },
    {
      "uri": "textures/FLAK1_baseColor.png"
    },
    {
      "uri": "textures/FLAK2_baseColor.png"
    },
    {
      "uri": "textures/FLAK4_baseColor.png"
    },
    {
      "uri": "textures/FLAK5_baseColor.png"
    }
  ],
  "materials": [
    {
      "doubleSided": true,
      "name": "FLAK3",
      "pbrMetallicRoughness": {
        "baseColorTexture": {
          "index": 0
        },
        "metallicFactor": 0.7329498096953376,
        "roughnessFactor": 0.3657463265080114
      }
    },
    {
      "doubleSided": true,
      "name": "FLAK1",
      "pbrMetallicRoughness": {
        "baseColorTexture": {
          "index": 1
        },
        "metallicFactor": 0.7329498096953376,
        "roughnessFactor": 0.3657463265080114
      }
    },
    {
      "doubleSided": true,
      "name": "FLAK2",
      "pbrMetallicRoughness": {
        "baseColorTexture": {
          "index": 2
        },
        "metallicFactor": 0.7329498096953376,
        "roughnessFactor": 0.3657463265080114
      }
    },
    {
      "doubleSided": true,
      "name": "FLAK4",
      "pbrMetallicRoughness": {
        "baseColorTexture": {
          "index": 3
        },
        "metallicFactor": 0.7329498096953376,
        "roughnessFactor": 0.3657463265080114
      }
    },
    {
      "doubleSided": true,
      "name": "FLAK5",
      "pbrMetallicRoughness": {
        "baseColorTexture": {
          "index": 4
        },
        "metallicFactor": 0.7329498096953376,
        "roughnessFactor": 0.3657463265080114
      }
    }
  ],
  "meshes": [
    {
      "name": "Material1",
      "primitives": [
        {
          "attributes": {
            "NORMAL": 1,
            "POSITION": 0,
            "TEXCOORD_0": 2
          },
          "indices": 3,
          "material": 4,
          "mode": 4
        }
      ]
    },
    {
      "name": "Material1",
      "primitives": [
        {
          "attributes": {
            "NORMAL": 5,
            "POSITION": 4,
            "TEXCOORD_0": 6
          },
          "indices": 7,
          "material": 3,
          "mode": 4
        }
      ]
    },
    {
      "name": "Material1",
      "primitives": [
        {
          "attributes": {
            "NORMAL": 9,
            "POSITION": 8,
            "TEXCOORD_0": 10
          },
          "indices": 11,
          "material": 2,
          "mode": 4
        }
      ]
    },
    {
      "name": "Material1",
      "primitives": [
        {
          "attributes": {
            "NORMAL": 13,
            "POSITION": 12,
            "TEXCOORD_0": 14
          },
          "indices": 15,
          "material": 1,
          "mode": 4
        }
      ]
    },
    {
      "name": "Material1",
      "primitives": [
        {
          "attributes": {
            "NORMAL": 17,
            "POSITION": 16,
            "TEXCOORD_0": 18
          },
          "indices": 19,
          "material": 0,
          "mode": 4
        }
      ]
    }
  ],
  "nodes": [
    {
      "children": [
        1
      ],
      "matrix": [
        1.0,
        0.0,
        0.0,
        0.0,
        0.0,
        2.220446049250313e-16,
        -1.0,
        0.0,
        0.0,
        1.0,
        2.220446049250313e-16,
        0.0,
        0.0,
        0.0,
        0.0,
        1.0
      ],
      "name": "Sketchfab_model"
    },
    {
      "children": [
        2,
        4,
        6,
        8,
        10
      ],
      "matrix": [
        1.0,
        0.0,
        0.0,
        0.0,
        0.0,
        -4.371139006309477e-08,
        0.999999999999999,
        0.0,
        0.0,
        -0.999999999999999,
        -4.371139006309477e-08,
        0.0,
        0.0,
        0.0,
        0.0,
        1.0
      ],
      "name": "Collada visual scene group"
    },
    {
      "children": [
        3
      ],
      "matrix": [
        1.0,
        0.0,
        0.0,
        0.0,
        0.0,
        1.0,
        0.0,
        0.0,
        0.0,
        0.0,
        1.0,
        0.0,
        -2.5481998920440674,
        0.0,
        -1.968150019645691,
        1.0
      ],
      "name": "FLAK5"
    },
    {
      "mesh": 0,
      "name": "Material1"
    },
    {
      "children": [
        5
      ],
      "matrix": [
        1.0,
        0.0,
        0.0,
        0.0,
        0.0,
        1.0,
        0.0,
        0.0,
        0.0,
        0.0,
        1.0,
        0.0,
        0.2915860116481781,
        0.0,
        -2.0025899410247803,
        1.0
      ],
      "name": "FLAK4"
    },
    {
      "mesh": 1,
      "name": "Material1"
    },
    {
      "children": [
        7
      ],
      "matrix": [
        1.0,
        0.0,
        0.0,
        0.0,
        0.0,
        1.0,
        0.0,
        0.0,
        0.0,
        0.0,
        1.0,
        0.0,
        -1.8772499561309814,
        0.0,
        1.4066799879074097,
        1.0
      ],
      "name": "FLAK2"
    },
    {
      "mesh": 2,
      "name": "Material1"
    },
    {
      "children": [
        9
      ],
      "matrix": [
        1.0,
        0.0,
        0.0,
        0.0,
        0.0,
        1.0,
        0.0,
        0.0,
        0.0,
        0.0,
        1.0,
        0.0,
        1.6774200201034546,
        0.0,
        1.4662100076675415,
        1.0
      ],
      "name": "FLAK1"
    },
    {
      "mesh": 3,
      "name": "Material1"
    },
    {
      "children": [
        11
      ],
      "matrix": [
        1.0,
        0.0,
        0.0,
        0.0,
        0.0,
        1.0,
        0.0,
        0.0,
        0.0,
        0.0,
        1.0,
        0.0,
        2.5401899814605713,
        0.08441270142793655,
        -1.9973900318145752,
        1.0
      ],
      "name": "FLAK3"
    },
    {
      "mesh": 4,
      "name": "Material1"
    }
  ],
  "samplers": [
    {
      "magFilter": 9729,
      "minFilter": 9987,
      "wrapS": 10497,
      "wrapT": 10497
    }
  ],
  "scene": 0,
  "scenes": [
    {
      "name": "Sketchfab_Scene",
      "nodes": [
        0
      ]
    }
  ],
  "textures": [
    {
      "sampler": 0,
      "source": 0
    },
    {
      "sampler": 0,
      "source": 1
    },
    {
      "sampler": 0,
      "source": 2
    },
    {
      "sampler": 0,
      "source": 3
    },
    {
      "sampler": 0,
      "source": 4
    }
  ]
}
